#!OML:ASF F:\VICON\USERDATA\INSTALL\SteveWalk\SteveWalk.ASF
:FULLY-SPECIFIED
:DEGREES
293
root 0.0673466 15.8337 17.7371 19.0521 -4.62883 -1.7935
lowerback -16.1468 2.53277 -0.500705
upperback -5.24621 3.39686 0.3361
thorax 3.40544 1.68634 1.26904
lowerneck -5.15361 -0.271037 -0.83943
upperneck 7.09743 -0.319619 0.338003
head 3.1805 -0.168329 0.242266
rclavicle -2.70145e-015 -1.16289e-014
rhumerus -8.92073 6.45497 -81.6536
rradius 49.567
rwrist -14.2195
rhand -18.6288 -33.8082
rfingers 7.12502
rthumb 7.66344 -63.6493
lclavicle -2.70145e-015 -1.16289e-014
lhumerus -73.5642 27.4278 36.4255
lradius 10.4128
lwrist -48.3938
lhand -11.5004 -15.8623
lfingers 7.12502
lthumb 14.5384 13.6083
rfemur -0.259758 -3.14243 20.2439
rtibia 22.4232
rfoot -22.7147 13.8014
rtoes -21.5065
lfemur -50.11 5.1765 -20.6728
ltibia 16.0249
lfoot -10.2727 -0.293505
ltoes -11.5871
294
root 0.075532 15.8169 17.9859 19.3442 -4.89998 -1.84534
lowerback -16.3898 2.67721 -0.856745
upperback -5.35567 3.6456 0.287964
thorax 3.39363 1.81108 1.47346
lowerneck -5.36052 -0.420211 -0.990572
upperneck 7.10069 -0.523212 0.570715
head 3.22456 -0.264321 0.335352
rclavicle 2.40324e-014 1.3828e-014
rhumerus -9.61369 6.34998 -81.3657
rradius 50.9903
rwrist -14.5955
rhand -18.8218 -33.3489
rfingers 7.12502
rthumb 7.47718 -63.1968
lclavicle 2.40324e-014 1.3828e-014
lhumerus -74.5462 27.5592 34.5384
lradius 10.3535
lwrist -49.6309
lhand -11.4154 -16.3749
lfingers 7.12502
lthumb 14.6203 13.0897
rfemur -0.502216 -2.32427 20.0362
rtibia 23.555
rfoot -21.2571 14.6371
rtoes -19.3584
lfemur -50.314 5.56759 -21.2298
ltibia 17.3131
lfoot -8.13722 0.0601411
ltoes -20.6024
295
root 0.0993624 15.8187 18.259 19.407 -4.39488 -1.39642
lowerback -16.8568 2.51546 -1.36088
upperback -5.27888 3.52705 0.1209
thorax 3.70582 1.74815 1.58611
lowerneck -5.66126 -0.533577 -1.13092
upperneck 7.15763 -0.680528 0.827436
head 3.30604 -0.335718 0.436464
rclavicle 5.20587e-015 1.26849e-014
rhumerus -10.2614 5.89536 -81.0805
rradius 52.3906
rwrist -14.5269
rhand -18.1745 -33.9163
rfingers 7.12502
rthumb 8.10191 -63.741
lclavicle 5.20587e-015 1.26849e-014
lhumerus -75.5322 27.9316 32.2887
lradius 10.1709
lwrist -51.5838
lhand -11.6949 -16.5941
lfingers 7.12502
lthumb 14.351 12.8898
rfemur -0.388337 -2.50912 19.5318
rtibia 24.61
rfoot -18.9446 15.7362
rtoes -16.0436
lfemur -50.6209 4.85126 -21.7178
ltibia 19.0994
lfoot -5.42349 -0.296466
ltoes -23.4334
296
root 0.123571 15.8294 18.522 19.4728 -4.16502 -1.23943
lowerback -17.0989 2.47001 -1.61579
upperback -5.29883 3.51831 0.0115502
thorax 3.80457 1.74231 1.62453
lowerneck -5.74507 -0.625551 -1.21243
upperneck 7.18066 -0.812537 1.03572
head 3.33387 -0.394972 0.512716
rclavicle -7.50723e-015 -2.73329e-015
rhumerus -10.9586 5.59108 -80.8661
rradius 53.5277
rwrist -14.6187
rhand -17.7668 -34.9583
rfingers 7.12502
rthumb 8.49536 -64.7674
lclavicle -7.50723e-015 -2.73329e-015
lhumerus -75.5625 27.9569 31.9776
lradius 9.85639
lwrist -52.0482
lhand -12.1582 -16.1192
lfingers 7.12502
lthumb 13.9046 13.3959
rfemur -0.490352 -2.35899 19.2533
rtibia 25.9469
rfoot -16.3267 16.6351
rtoes -12.5729
lfemur -51.1102 3.99197 -21.3135
ltibia 21.034
lfoot -3.2475 -0.538925
ltoes -19.606
297
root 0.143533 15.8268 18.7762 19.5711 -3.86495 -0.91722
lowerback -17.173 2.32185 -2.08684
upperback -5.41015 3.40962 -0.127862
thorax 3.71005 1.69121 1.72154
lowerneck -5.79446 -0.731269 -1.24824
upperneck 7.14671 -0.964328 1.20949
head 3.33549 -0.464155 0.56865
rclavicle -1.9932e-014 -1.74931e-014
rhumerus -11.743 5.71988 -80.8228
rradius 54.4398
rwrist -15.2641
rhand -18.5551 -35.1056
rfingers 7.12502
rthumb 7.73454 -64.9441
lclavicle -1.9932e-014 -1.74931e-014
lhumerus -75.5257 28.2051 31.616
lradius 9.38844
lwrist -52.4179
lhand -12.3017 -14.8798
lfingers 7.12502
lthumb 13.7663 14.6448
rfemur -0.770239 -2.14492 18.913
rtibia 27.6467
rfoot -14.2698 16.7063
rtoes -12.0246
lfemur -51.6983 3.27472 -21.2227
ltibia 23.0187
lfoot -2.1125 -0.904635
ltoes -14.1983
298
root 0.155605 15.8139 19.0248 19.7032 -3.69911 -0.197354
lowerback -17.296 2.14716 -3.03417
upperback -5.49283 3.35622 -0.430759
thorax 3.65128 1.66729 1.92824
lowerneck -6.02811 -0.887956 -1.18475
upperneck 7.20448 -1.19284 1.38676
head 3.40527 -0.567699 0.604494
rclavicle 5.36703e-014 9.54166e-015
rhumerus -12.7225 5.57275 -81.0055
rradius 55.5789
rwrist -15.9813
rhand -19.1735 -34.2226
rfingers 7.12502
rthumb 7.13764 -64.0823
lclavicle 5.36703e-014 9.54166e-015
lhumerus -75.2263 28.5331 31.3228
lradius 8.87978
lwrist -52.6681
lhand -12.7127 -13.8662
lfingers 7.12502
lthumb 13.3701 15.6849
rfemur -1.31763 -1.90192 18.1818
rtibia 29.6609
rfoot -12.065 16.7068
rtoes -12.0869
lfemur -52.2451 2.73439 -21.7965
ltibia 25.1681
lfoot -1.41083 -1.22694
ltoes -14.2975
299
root 0.160683 15.8009 19.2669 19.8283 -3.56909 0.418321
lowerback -17.4589 2.04547 -3.91432
upperback -5.48457 3.39477 -0.749877
thorax 3.7098 1.6852 2.10207
lowerneck -6.2686 -1.10313 -1.14636
upperneck 7.2338 -1.5085 1.69196
head 3.47037 -0.709462 0.682049
rclavicle -2.9709e-014 -1.19271e-015
rhumerus -13.6424 4.40127 -81.0777
rradius 56.879
rwrist -17.5454
rhand -18.599 -36.2615
rfingers 7.12502
rthumb 7.69223 -66.1016
lclavicle -2.9709e-014 -1.19271e-015
lhumerus -74.7046 28.8543 31.1499
lradius 8.54092
lwrist -52.8125
lhand -12.9583 -13.0209
lfingers 7.12502
lthumb 13.1334 16.5455
rfemur -2.13382 -1.55307 17.615
rtibia 31.9537
rfoot -9.19303 16.8046
rtoes -11.9744
lfemur -52.7319 2.54178 -22.535
ltibia 27.3855
lfoot -1.10515 -1.68174
ltoes -15.8629
